# AST/ASF file generated using VICON BodyLanguage
# -----------------------------------------------
:version 1.10
:name VICON
:units
  mass 1.0
  length 0.45
  angle deg
:documentation
   .ast/.asf automatically generated from VICON data using
   VICON BodyBuilder and BodyLanguage model FoxedUp or BRILLIANT.MOD
:root
   order TX TY TZ RX RY RZ
   axis XYZ
   position 0 0 0  
   orientation 0 0 0 
:bonedata
  begin
     id 1 
     name lhipjoint
     direction 0.588788 -0.725889 0.355548 
     length 2.37778 
     axis 0 0 0  XYZ
  end
  begin
     id 2 
     name lfemur
     direction 0.34202 -0.939693 0  
     length 6.86393  
     axis 0 0 20  XYZ
    dof rx ry rz
    limits (-160.0 20.0)
           (-70.0 70.0)
           (-60.0 70.0)
  end
  begin
     id 3 
     name ltibia
     direction 0.34202 -0.939693 0   
     length 7.32851   
     axis 0 0 20   XYZ
    dof rx
    limits (-10.0 170.0)
  end
  begin
     id 4 
     name lfoot
     direction 0.0626533 -0.172138 0.983078   
     length 1.98929   
     axis -90 7.62852e-016 20   XYZ
    dof rx rz
    limits (-45.0 90.0)
           (-70.0 20.0)
  end
  begin
     id 5 
     name ltoes
     direction 1.53647e-011 -4.21734e-011 1   
     length 1.00479   
     axis -90 7.62852e-016 20   XYZ
    dof rx
    limits (-90.0 20.0)
  end
  begin
     id 6 
     name rhipjoint
     direction -0.59141 -0.724168 0.354705   
     length 2.38343  
     axis 0 0 0  XYZ 
  end
  begin
     id 7 
     name rfemur
     direction -0.34202 -0.939693 0   
     length 6.95589   
     axis 0 0 -20   XYZ
    dof rx ry rz
    limits (-160.0 20.0)
           (-70.0 70.0)
           (-70.0 60.0)
  end
  begin
     id 8 
     name rtibia
     direction -0.34202 -0.939693 0   
     length 7.32327   
     axis 0 0 -20   XYZ
    dof rx
    limits (-10.0 170.0)
 end
 begin
     id 9 
     name rfoot
     direction -0.0660461 -0.18146 0.981178   
     length 1.85272  
     axis -90 -7.62852e-016 -20   XYZ
    dof rx rz
    limits (-45.0 90.0)
           (-20.0 70.0)
  end
  begin
     id 10 
     name rtoes
     direction -1.53586e-011 -4.21988e-011 1   
     length 0.93746   
     axis -90 -7.62852e-016 -20   XYZ
    dof rx
    limits (-90.0 20.0)
  end
  begin
     id 11 
     name lowerback
     direction -0.0107982 0.991059 0.13299   
     length 1.98691   
     axis 0 0 0   XYZ
    dof rx ry rz
    limits (-20.0 45.0)
           (-30.0 30.0)
           (-30.0 30.0)
  end
  begin
     id 12 
     name upperback
     direction 0.0076296 0.999916 0.0104576   
     length 1.99501   
     axis 0 0 0   XYZ
    dof rx ry rz
    limits (-20.0 45.0)
           (-30.0 30.0)
           (-30.0 30.0)
  end
  begin
     id 13 
     name thorax
     direction 0.01176 0.998615 -0.0512909   
     length 2.03144   
     axis 0 0 0   XYZ
    dof rx ry rz
    limits (-20.0 45.0)
           (-30.0 30.0)
           (-30.0 30.0)
  end
  begin
     id 14 
     name lowerneck
     direction -0.0171909 0.999644 0.0204011   
     length 1.71818   
     axis 0 0 0   XYZ
    dof rx ry rz
    limits (-20.0 45.0)
           (-30.0 30.0)
           (-30.0 30.0)
  end
  begin
     id 15 
     name upperneck
     direction 0.0250902 0.997482 -0.0663316   
     length 1.66199   
     axis 0 0 0   XYZ
    dof rx ry rz
    limits (-20.0 45.0)
           (-30.0 30.0)
           (-30.0 30.0)
  end
  begin
     id 16
     name head
     direction 0.00881535 0.99956 -0.0283365  
     length 1.81545  
     axis 0 0 0   XYZ
    dof rx ry rz
    limits (-20.0 45.0)
           (-30.0 30.0)
           (-30.0 30.0)
  end
  begin
     id 17 
     name lclavicle
     direction 0.840411 0.486876 -0.238035  
     length 3.30409  
     axis 0 0 0   XYZ
    dof ry rz
    limits (-20.0 10.0)
           (0.0 20.0)
  end
  begin
     id 18 
     name lhumerus
     direction 1 -4.48977e-011 -5.16239e-027   
     length 4.62672   
     axis 180 -30 -90   XYZ
    dof rx ry rz
    limits (-60.0 90.0)
           (-90.0 90.0)
           (-90.0 90.0)
  end
  begin
     id 19
     name lradius
     direction 1 -4.48977e-011 -8.71171e-027   
     length 3.11018   
     axis 180 -30 -90   XYZ
    dof rx
    limits (-10.0 170.0)
  end
  begin
     id 20
     name lwrist
     direction 1 -4.48912e-011 -1.03764e-026   
     length 1.55509   
     axis 9.09556e-015 90 90   XYZ
    dof ry
    limits (-180.0 0.0)
 end
  begin
     id 21 
     name lhand
     direction 1 -4.49072e-011 -2.07528e-026   
     length 0.743834   
     axis 1.3242e-014 90 90   XYZ
    dof rx rz
    limits (-90.0 90.0)
           (-45.0 45.0)
  end
  begin
     id 22 
     name lfingers
     direction 1 -4.48909e-011 -4.15056e-026   
     length 0.599698   
     axis 2.64841e-014 90 90   XYZ
    dof rx
    limits (0.0 90.0)
  end
  begin
     id 23
     name lthumb
     direction 0.707107 -6.35013e-011 0.707107   
     length 0.86105   
     axis -90 45 2.85299e-015   XYZ
    dof rx rz
    limits (-45.0 45.0)
           (-45.0 45.0)
  end
  begin
     id 24 
     name rclavicle
     direction -0.835208 0.500237 -0.228452   
     length 3.2716  
     axis 0 0 0   XYZ 
    dof ry rz
    limits (-10.0 20.0)
           (-20.0 0.0)
  end
  begin
     id 25 
     name rhumerus
     direction -1 -4.48978e-011 -5.1953e-028  
     length 4.55919   
     axis 180 30 90   XYZ
    dof rx ry rz
    limits (-90.0 60.0)
           (-90.0 90.0)
           (-90.0 90.0)
  end
  begin
     id 26 
     name rradius
     direction -1 -4.48961e-011 -5.99546e-027   
     length 3.22748   
     axis 180 30 90   XYZ
    dof rx
    limits (-10.0 170.0)
  end
  begin
     id 27 
     name rwrist
     direction -1 -4.48986e-011 -1.03764e-026   
     length 1.61374   
     axis 9.09556e-015 -90 -90   XYZ
    dof ry
    limits (-180.0 0.0)
  end
  begin
     id 28
     name rhand
     direction -1 -4.4899e-011 -2.07528e-026   
     length 0.700882   
     axis 1.3242e-014 -90 -90   XYZ
    dof rx rz
    limits (-90.0 90.0)
           (-45.0 45.0)
  end
  begin
     id 29
     name rfingers
     direction -1 -4.48991e-011 -4.15056e-026   
     length 0.565069   
     axis 2.64841e-014 -90 -90   XYZ
    dof rx
    limits (0.0 90.0)
  end
  begin
     id 30
     name rthumb
     direction -0.707107 -6.34804e-011 0.707107   
     length 0.811329   
     axis -90 -45 -2.85299e-015   XYZ
    dof rx rz
    limits (-45.0 45.0)
           (-45.0 45.0)
  end
:hierarchy
  begin
    root lhipjoint rhipjoint lowerback
    lhipjoint lfemur
    lfemur ltibia
    ltibia lfoot
    lfoot ltoes
    rhipjoint rfemur
    rfemur rtibia
    rtibia rfoot
    rfoot rtoes
    lowerback upperback
    upperback thorax
    thorax lowerneck lclavicle rclavicle
    lowerneck upperneck
    upperneck head
    lclavicle lhumerus
    lhumerus lradius
    lradius lwrist
    lwrist lhand lthumb
    lhand lfingers
    rclavicle rhumerus
    rhumerus rradius
    rradius rwrist
    rwrist rhand rthumb
    rhand rfingers
  end

#!OML:ASF F:\VICON\USERDATA\INSTALL\SteveWalk\SteveWalk.ASF
:FULLY-SPECIFIED
:DEGREES
127
root 0.440243 16.4284 -17.7525 18.0191 -0.410443 -0.181689
lowerback -14.8386 0.53847 -0.0914611
upperback -4.71448 0.671985 1.22291
thorax 3.31408 0.338974 1.44952
lowerneck -5.09163 -0.102362 1.31011
upperneck 10.5928 0.106891 -3.36646
head 4.41704 -0.0588413 -1.36638
rclavicle 2.11209e-015 1.19271e-015
rhumerus -27.4097 0.996299 -85.3675
rradius 51.8205
rwrist -17.2802
rhand -13.3885 -39.4772
rfingers 7.12502
rthumb 12.7187 -69.0699
lclavicle 2.11209e-015 1.19271e-015
lhumerus -53.2994 28.4054 59.2594
lradius 11.9728
lwrist -45.865
lhand -9.30957 -16.5817
lfingers 7.12502
lthumb 16.6484 12.7243
rfemur -18.3205 -6.31651 23.8677
rtibia 30.1213
rfoot -28.0753 8.1587
rtoes -6.82357
lfemur -49.3615 4.40146 -22.1684
ltibia 40.0519
lfoot -10.186 8.67059
ltoes -7.03971
128
root 0.450686 16.4281 -17.5359 18.1413 -0.913538 -0.287959
lowerback -14.8352 0.666128 -0.162903
upperback -4.76451 0.850544 1.22634
thorax 3.25386 0.42795 1.52379
lowerneck -5.03356 0.0521026 1.36515
upperneck 10.3755 0.315414 -3.46491
head 4.33385 0.043139 -1.39555
rclavicle -1.01877e-014 -3.57812e-015
rhumerus -26.8879 2.07192 -85.4137
rradius 53.2357
rwrist -17.9088
rhand -13.8398 -36.3007
rfingers 7.12502
rthumb 12.2836 -65.9199
lclavicle -1.01877e-014 -3.57812e-015
lhumerus -56.0607 30.6941 54.8836
lradius 11.5043
lwrist -50.0633
lhand -8.85823 -16.4605
lfingers 7.12502
lthumb 17.0829 12.8084
rfemur -17.1368 -6.80082 23.7395
rtibia 29.0583
rfoot -28.1131 9.0001
rtoes -7.11851
lfemur -49.2913 4.14345 -21.657
ltibia 36.6203
lfoot -10.1796 8.66248
ltoes -2.89795
129
root 0.462361 16.4284 -17.3178 18.3235 -1.46141 -0.326604
lowerback -14.9405 0.811572 -0.29315
upperback -4.79033 1.06161 1.19907
thorax 3.27546 0.532523 1.607
lowerneck -5.12978 0.167784 1.42744
upperneck 10.2458 0.47161 -3.55824
head 4.31243 0.118146 -1.42942
rclavicle 2.18539e-014 8.34896e-015
rhumerus -26.2456 3.27079 -85.4539
rradius 54.5609
rwrist -19.1318
rhand -14.7243 -35.8553
rfingers 7.12502
rthumb 11.4306 -65.5237
lclavicle 2.18539e-014 8.34896e-015
lhumerus -58.6299 32.3493 50.9385
lradius 11.1768
lwrist -53.4821
lhand -8.21181 -16.2627
lfingers 7.12502
lthumb 17.705 12.9512
rfemur -15.9705 -7.0477 23.4933
rtibia 28.0051
rfoot -28.1656 9.62379
rtoes -7.84852
lfemur -49.2006 3.73234 -21.1045
ltibia 33.1192
lfoot -9.73201 8.96255
ltoes -1.2284
130
root 0.475606 16.4182 -17.0951 18.4357 -1.92618 -0.502544
lowerback -15.037 0.960187 -0.24922
upperback -4.7729 1.24958 1.21098
thorax 3.34068 0.624994 1.62969
lowerneck -5.4012 0.248755 1.44459
upperneck 10.3032 0.584453 -3.60681
head 4.3921 0.169417 -1.44561
rclavicle -7.96381e-015 -3.97569e-016
rhumerus -25.4818 4.42731 -85.4866
rradius 55.6978
rwrist -19.9964
rhand -15.4863 -37.0757
rfingers 7.12502
rthumb 10.6957 -66.7834
lclavicle -7.96381e-015 -3.97569e-016
lhumerus -61.4628 33.9916 46.5999
lradius 10.851
lwrist -57.2082
lhand -7.96169 -16.2564
lfingers 7.12502
lthumb 17.9457 12.9356
rfemur -14.7216 -7.29577 23.3783
rtibia 26.9988
rfoot -28.1441 10.4215
rtoes -8.28517
lfemur -49.1852 3.53882 -20.5879
ltibia 29.6091
lfoot -8.37267 9.6298
ltoes -5.70818
131
root 0.493113 16.3972 -16.8687 18.532 -2.35586 -0.659941
lowerback -15.186 1.10555 -0.168415
upperback -4.74753 1.4276 1.21456
thorax 3.44387 0.712119 1.62307
lowerneck -5.27161 0.350804 1.30797
upperneck 10.0029 0.714191 -3.48259
head 4.25885 0.23708 -1.36722
rclavicle -2.21769e-014 -8.34896e-015
rhumerus -24.7031 5.36624 -85.3889
rradius 56.6872
rwrist -20.0536
rhand -15.7175 -37.7195
rfingers 7.12502
rthumb 10.4727 -67.4387
lclavicle -2.21769e-014 -8.34896e-015
lhumerus -64.6797 35.6641 41.6254
lradius 10.4119
lwrist -61.1091
lhand -8.43291 -16.5283
lfingers 7.12502
lthumb 17.4923 12.7047
rfemur -13.4554 -7.54504 23.1823
rtibia 26.013
rfoot -27.9336 11.5741
rtoes -7.82711
lfemur -49.1513 3.42857 -20.1449
ltibia 26.184
lfoot -7.20718 10.0737
ltoes -11.1515
